<svg version="1.2" xmlns="http://www.w3.org/2000/svg" viewBox="0 0 24 24" width="24" height="24">
	<title>todo-tree-container</title>
	<style>
		.s0 { fill: #ffffff } 
	</style>
	<path id="faiss" class="s0" aria-label="faiss"  d="m2 9.8h-0.6c0 0-0.1 0.1-0.1 0.2l-0.2 1c0 0 0.1 0.1 0.1 0.1h0.6l-0.7 3.8c0 0 0 0.1 0.1 0.1h1.2c0.1 0 0.1 0 0.1-0.1l0.7-3.8h1.2c0 0 0.1 0 0.1-0.1l0.2-1c0-0.1-0.1-0.2-0.1-0.2h-1.2l0.1-0.5c0-0.4 0.4-0.8 0.8-0.8 0.1 0 0.2 0 0.3 0.1h0.2c0 0.1 0.1 0 0.1 0l0.5-1c0-0.1 0-0.1-0.1-0.1l-0.2-0.1c-0.3-0.1-0.5-0.2-0.8-0.2-1.2 0-2 0.8-2.2 2zm6.5 5c0 0.1 0 0.2 0.1 0.2h0.7c0 0 0.1-0.1 0.1-0.1l0.8-4.6c0-0.1 0-0.2-0.1-0.2l-1.1-0.2c-0.4-0.1-0.7-0.2-1.1-0.2-2.2 0-3 2-3 3.4 0 1.3 0.6 2 1.8 2 0.7 0 1.1-0.3 1.5-0.8 0.2-0.2 0.3-0.2 0.3 0.1zm0.1-3.8v0.5c-0.3 1.3-0.9 2.2-1.6 2.2-0.5 0-0.8-0.3-0.8-0.8 0-0.7 0.5-2 1.7-2 0.2 0 0.3 0 0.5 0.1zm4.2-3.9c-0.6 0-0.9 0.3-0.9 0.9 0 0.5 0.3 0.7 0.8 0.7 0.5 0 0.8-0.3 0.8-0.9 0-0.5-0.2-0.7-0.7-0.7zm0.4 2.7c0-0.1 0-0.2-0.1-0.2h-1.8c-0.1 0-0.1 0.1-0.1 0.2l-0.2 1c0 0 0 0.1 0.1 0.1h0.5l-0.6 3.8c0 0.1 0 0.1 0.1 0.1h1.2c0 0 0.1 0 0.1-0.1zm3 3.1c0.2 0 0.3 0.1 0.3 0.3 0 0.2-0.2 0.4-0.8 0.4-0.2 0-0.8 0-1.2-0.1l-0.4-0.1c0 0-0.1 0-0.1 0.1l-0.5 0.9c0 0.1 0 0.1 0.1 0.2l0.5 0.1c0.5 0.2 1 0.2 1.6 0.2 1.7 0 2.2-1 2.2-1.8 0-0.7-0.4-1.1-1.2-1.3l-0.9-0.3c-0.2-0.1-0.3-0.1-0.3-0.3 0-0.2 0.3-0.4 0.7-0.4 0.4 0 0.7 0 1 0.1l0.4 0.2c0.1 0 0.2 0 0.2-0.1l0.4-1c0.1-0.1 0-0.1-0.1-0.1l-0.5-0.2c-0.4-0.1-0.9-0.2-1.3-0.2-1.6 0-2.2 0.9-2.2 1.9 0 0.6 0.4 1 1.2 1.2zm5 0c0.2 0.1 0.3 0.2 0.3 0.3 0 0.3-0.3 0.5-0.8 0.5-0.2 0-0.8 0-1.2-0.2l-0.4-0.1c-0.1 0-0.1 0-0.2 0.1l-0.4 1c0 0.1 0 0.1 0.1 0.1l0.5 0.2c0.5 0.1 1 0.2 1.6 0.2 1.7 0 2.2-1.1 2.2-1.9 0-0.7-0.4-1.1-1.2-1.3l-0.9-0.2c-0.2-0.1-0.3-0.2-0.3-0.3 0-0.3 0.2-0.4 0.7-0.4 0.4 0 0.7 0 1 0.1l0.4 0.1c0.1 0 0.1 0 0.2-0.1l0.4-0.9c0-0.1 0-0.2-0.1-0.2l-0.5-0.1c-0.5-0.1-0.9-0.2-1.3-0.2-1.6 0-2.2 0.9-2.2 1.9 0 0.6 0.4 1 1.1 1.2z"/>
</svg>